<?xml version="1.0" encoding="UTF-8"?>
<svg width="152px" height="21px" viewBox="0 0 152 21" version="1.1" xmlns="http://www.w3.org/2000/svg" xmlns:xlink="http://www.w3.org/1999/xlink">
    <!-- Generator: Sketch 43.2 (39069) - http://www.bohemiancoding.com/sketch -->
    <title>Group 2</title>
    <desc>Created with Sketch.</desc>
    <defs></defs>
    <g id="Page-1" stroke="none" stroke-width="1" fill="none" fill-rule="evenodd">
        <g id="Group-2">
            <path d="M30.349,6.032 C29.417662,5.72399846 28.6366698,5.57 28.006,5.57 C27.5073308,5.57 27.1150014,5.66166575 26.829,5.845 C26.5429986,6.02833425 26.4,6.29599824 26.4,6.648 C26.4,6.98533502 26.5246654,7.26766553 26.774,7.495 C27.0233346,7.72233447 27.3313315,7.90566597 27.698,8.045 C28.0646685,8.18433403 28.6073297,8.3639989 29.326,8.584 C30.396672,8.89200154 31.2803299,9.19999846 31.977,9.508 C32.6736701,9.81600154 33.2713308,10.2889968 33.77,10.927 C34.2686692,11.5650032 34.518,12.3973282 34.518,13.424 C34.518,14.4506718 34.2466694,15.3269964 33.704,16.053 C33.1613306,16.7790036 32.4170047,17.3253315 31.471,17.692 C30.5249953,18.0586685 29.4726725,18.242 28.314,18.242 C27.0379936,18.242 25.765673,18.0183356 24.497,17.571 C23.228327,17.1236644 22.1320046,16.5113372 21.208,15.734 L22.77,12.588 C23.5473372,13.2773368 24.4676614,13.8419978 25.531,14.282 C26.5943387,14.7220022 27.5366626,14.942 28.358,14.942 C28.9593363,14.942 29.4323316,14.8320011 29.777,14.612 C30.1216684,14.3919989 30.294,14.0693355 30.294,13.644 C30.294,13.2919982 30.1656679,12.9986678 29.909,12.764 C29.6523321,12.5293322 29.3296686,12.342334 28.941,12.203 C28.5523314,12.063666 28.0060035,11.8986676 27.302,11.708 C26.2459947,11.4146652 25.3733368,11.1176682 24.684,10.817 C23.9946632,10.5163318 23.4043358,10.0616697 22.913,9.453 C22.4216642,8.84433029 22.176,8.03400506 22.176,7.022 C22.176,6.0686619 22.4289975,5.23267026 22.935,4.514 C23.4410025,3.79532974 24.159662,3.24166861 25.091,2.853 C26.022338,2.46433139 27.1039938,2.27 28.336,2.27 C29.4506722,2.27 30.5506612,2.42766509 31.636,2.743 C32.7213388,3.05833491 33.6746626,3.47999736 34.496,4.008 L32.978,7.22 C32.1566626,6.73599758 31.280338,6.34000154 30.349,6.032 Z M41.91,9.2 C41.2059965,9.2 40.6340022,9.46766399 40.194,10.003 C39.7539978,10.538336 39.534,11.2313291 39.534,12.082 C39.534,12.9473377 39.7539978,13.6439974 40.194,14.172 C40.6340022,14.7000026 41.2059965,14.964 41.91,14.964 C42.9953388,14.964 43.7726643,14.5166711 44.242,13.622 L47.124,15.272 C46.6546643,16.1813379 45.9506714,16.8853308 45.012,17.384 C44.0733286,17.8826692 42.9733396,18.132 41.712,18.132 C40.4946606,18.132 39.4240046,17.8826692 38.5,17.384 C37.5759954,16.8853308 36.8610025,16.1813379 36.355,15.272 C35.8489975,14.3626621 35.596,13.3066727 35.596,12.104 C35.596,10.8866606 35.8526641,9.81233799 36.366,8.881 C36.8793359,7.94966201 37.601662,7.23100253 38.533,6.725 C39.464338,6.21899747 40.5386606,5.966 41.756,5.966 C42.9440059,5.966 43.9999954,6.21166421 44.924,6.703 C45.8480046,7.19433579 46.5666641,7.88732886 47.08,8.782 L44.242,10.432 C43.6846639,9.61066256 42.9073383,9.2 41.91,9.2 Z M60.049,7.176 C60.8336706,7.99733744 61.226,9.1046597 61.226,10.498 L61.226,18 L57.31,18 L57.31,11.62 C57.31,10.94533 57.1303351,10.4136686 56.771,10.025 C56.4116649,9.63633139 55.9166698,9.442 55.286,9.442 C54.5673297,9.45666674 53.9990021,9.70966421 53.581,10.201 C53.1629979,10.6923358 52.954,11.333996 52.954,12.126 L52.954,18 L49.038,18 L49.038,1.676 L52.954,1.676 L52.954,8.034 C53.3793355,7.34466322 53.9256633,6.82400176 54.593,6.472 C55.2603367,6.11999824 56.0266623,5.944 56.892,5.944 C58.2120066,5.944 59.2643294,6.35466256 60.049,7.176 Z M73.568,7.682 C74.6093385,8.82600572 75.13,10.3953234 75.13,12.39 C75.13,12.6980015 75.1226667,12.9326659 75.108,13.094 L66.836,13.094 C67.0266676,13.76867 67.3566643,14.2856649 67.826,14.645 C68.2953357,15.0043351 68.86733,15.184 69.542,15.184 C70.0553359,15.184 70.5503309,15.0813344 71.027,14.876 C71.5036691,14.6706656 71.939998,14.370002 72.336,13.974 L74.382,16.02 C73.7659969,16.7093368 73.021671,17.2336649 72.149,17.593 C71.276329,17.9523351 70.2900055,18.132 69.19,18.132 C67.9139936,18.132 66.7993381,17.8826692 65.846,17.384 C64.8926619,16.8853308 64.1630025,16.1813379 63.657,15.272 C63.1509975,14.3626621 62.898,13.3066727 62.898,12.104 C62.898,10.8866606 63.1546641,9.81233799 63.668,8.881 C64.1813359,7.94966201 64.9073286,7.23100253 65.846,6.725 C66.7846714,6.21899747 67.8699938,5.966 69.102,5.966 C71.0380097,5.966 72.5266615,6.53799428 73.568,7.682 Z M71.324,11.004 C71.324,10.3146632 71.1223353,9.76100209 70.719,9.343 C70.3156646,8.92499791 69.7840033,8.716 69.124,8.716 C68.5079969,8.716 67.9910021,8.92133128 67.573,9.332 C67.1549979,9.74266872 66.8800007,10.2999965 66.748,11.004 L71.324,11.004 Z M96.118,7.176 C96.8953372,7.99733744 97.284,9.1046597 97.284,10.498 L97.284,18 L93.368,18 L93.368,11.62 C93.368,10.94533 93.1920018,10.4136686 92.84,10.025 C92.4879982,9.63633139 92.0113363,9.442 91.41,9.442 C90.7206632,9.45666674 90.1743354,9.70966421 89.771,10.201 C89.3676647,10.6923358 89.166,11.333996 89.166,12.126 L89.166,18 L85.25,18 L85.25,11.62 C85.25,10.94533 85.0740018,10.4136686 84.722,10.025 C84.3699982,9.63633139 83.8933363,9.442 83.292,9.442 C82.6026632,9.45666674 82.0526687,9.70966421 81.642,10.201 C81.2313313,10.6923358 81.026,11.333996 81.026,12.126 L81.026,18 L77.132,18 L77.132,6.098 L81.026,6.098 L81.026,8.056 C81.4366687,7.36666322 81.9683301,6.84233513 82.621,6.483 C83.2736699,6.12366487 84.0326623,5.944 84.898,5.944 C85.8660048,5.944 86.6946632,6.17866432 87.384,6.648 C88.0733368,7.11733568 88.5646652,7.76999582 88.858,8.606 C89.2393352,7.7259956 89.7856631,7.06233557 90.497,6.615 C91.2083369,6.16766443 92.0479952,5.944 93.016,5.944 C94.3066731,5.944 95.3406628,6.35466256 96.118,7.176 Z M109.142,7.077 C110.051338,7.83233711 110.513333,8.89199318 110.528,10.256 L110.528,18 L106.678,18 L106.678,16.658 C105.885996,17.6700051 104.690675,18.176 103.092,18.176 C101.83066,18.176 100.837004,17.8350034 100.111,17.153 C99.3849964,16.4709966 99.022,15.5726722 99.022,14.458 C99.022,13.328661 99.4143294,12.4486698 100.199,11.818 C100.983671,11.1873302 102.109326,10.8646667 103.576,10.85 L106.678,10.85 L106.678,10.718 C106.678,10.1459971 106.483669,9.70600154 106.095,9.398 C105.706331,9.08999846 105.145337,8.936 104.412,8.936 C103.913331,8.936 103.352336,9.01666586 102.729,9.178 C102.105664,9.33933414 101.47867,9.57399846 100.848,9.882 L99.77,7.242 C100.738005,6.8019978 101.665662,6.47566773 102.553,6.263 C103.440338,6.05033227 104.360662,5.944 105.314,5.944 C106.956675,5.944 108.232662,6.32166289 109.142,7.077 Z M105.842,15.085 C106.282002,14.7989986 106.560666,14.4286689 106.678,13.974 L106.678,12.94 L104.346,12.94 C103.245995,12.94 102.696,13.3506626 102.696,14.172 C102.696,14.5826687 102.838999,14.9089988 103.125,15.151 C103.411001,15.3930012 103.803331,15.514 104.302,15.514 C104.88867,15.514 105.401998,15.3710014 105.842,15.085 Z M120.912,17.384 C120.471998,17.6333346 119.966003,17.827666 119.394,17.967 C118.821997,18.106334 118.24267,18.176 117.656,18.176 C116.482661,18.176 115.533004,17.83867 114.807,17.164 C114.080996,16.48933 113.718,15.5580059 113.718,14.37 L113.718,9.266 L112.068,9.266 L112.068,6.67 L113.718,6.67 L113.718,3.37 L117.612,3.37 L117.612,6.67 L120.692,6.67 L120.692,9.266 L117.612,9.266 L117.612,13.754 C117.612,14.5900042 117.956663,15.008 118.646,15.008 C119.071335,15.008 119.57733,14.8760013 120.164,14.612 L120.912,17.384 Z M122.782,6.098 L126.676,6.098 L126.676,18 L122.782,18 L122.782,6.098 Z M126.181,1.203 C126.569669,1.59166861 126.764,2.09399692 126.764,2.71 C126.764,3.31133634 126.569669,3.80999802 126.181,4.206 C125.792331,4.60200198 125.297336,4.8 124.696,4.8 C124.094664,4.8 123.599669,4.60200198 123.211,4.206 C122.822331,3.80999802 122.628,3.31133634 122.628,2.71 C122.628,2.09399692 122.822331,1.59166861 123.211,1.203 C123.599669,0.81433139 124.094664,0.62 124.696,0.62 C125.297336,0.62 125.792331,0.81433139 126.181,1.203 Z M135.014,9.2 C134.309996,9.2 133.738002,9.46766399 133.298,10.003 C132.857998,10.538336 132.638,11.2313291 132.638,12.082 C132.638,12.9473377 132.857998,13.6439974 133.298,14.172 C133.738002,14.7000026 134.309996,14.964 135.014,14.964 C136.099339,14.964 136.876664,14.5166711 137.346,13.622 L140.228,15.272 C139.758664,16.1813379 139.054671,16.8853308 138.116,17.384 C137.177329,17.8826692 136.07734,18.132 134.816,18.132 C133.598661,18.132 132.528005,17.8826692 131.604,17.384 C130.679995,16.8853308 129.965003,16.1813379 129.459,15.272 C128.952997,14.3626621 128.7,13.3066727 128.7,12.104 C128.7,10.8866606 128.956664,9.81233799 129.47,8.881 C129.983336,7.94966201 130.705662,7.23100253 131.637,6.725 C132.568338,6.21899747 133.642661,5.966 134.86,5.966 C136.048006,5.966 137.103995,6.21166421 138.028,6.703 C138.952005,7.19433579 139.670664,7.88732886 140.184,8.782 L137.346,10.432 C136.788664,9.61066256 136.011338,9.2 135.014,9.2 Z M146.19,8.65 C145.852665,8.65 145.581334,8.71233271 145.376,8.837 C145.170666,8.96166729 145.068,9.14866542 145.068,9.398 C145.068,9.66200132 145.229332,9.87466586 145.552,10.036 C145.874668,10.1973341 146.387996,10.3733324 147.092,10.564 C147.942671,10.8133346 148.650331,11.0589988 149.215,11.301 C149.779669,11.5430012 150.267331,11.9096642 150.678,12.401 C151.088669,12.8923358 151.294,13.533996 151.294,14.326 C151.294,15.5286727 150.828338,16.4709966 149.897,17.153 C148.965662,17.8350034 147.752007,18.176 146.256,18.176 C145.243995,18.176 144.276005,18.0330014 143.352,17.747 C142.427995,17.4609986 141.60667,17.0393361 140.888,16.482 L142.12,13.952 C142.79467,14.4213357 143.50233,14.7843321 144.243,15.041 C144.98367,15.297668 145.683997,15.426 146.344,15.426 C146.725335,15.426 147.029666,15.3636673 147.257,15.239 C147.484334,15.1143327 147.598,14.9346678 147.598,14.7 C147.598,14.4066652 147.433002,14.1793341 147.103,14.018 C146.772998,13.8566659 146.256004,13.6806676 145.552,13.49 C144.715996,13.2406654 144.026669,12.9950012 143.484,12.753 C142.941331,12.5109988 142.468335,12.1480024 142.065,11.664 C141.661665,11.1799976 141.46,10.5493372 141.46,9.772 C141.46,8.56932732 141.914662,7.62700341 142.824,6.945 C143.733338,6.26299659 144.906659,5.922 146.344,5.922 C147.209338,5.922 148.063662,6.03933216 148.907,6.274 C149.750338,6.50866784 150.545996,6.85333106 151.294,7.308 L149.974,9.86 C148.433992,9.0533293 147.172672,8.65 146.19,8.65 Z" id="{{-Schematics" fill="#4990E2"></path>
            <path d="M5.181,10.3 C4.85099835,10.6666685 4.26800418,10.9673322 3.432,11.202 C4.26800418,11.4366678 4.85099835,11.7373315 5.181,12.104 C5.51100165,12.4706685 5.676,13.0719958 5.676,13.908 L5.676,16.416 C5.676,16.9440026 5.81166531,17.3106656 6.083,17.516 C6.35433469,17.7213344 6.856663,17.824 7.59,17.824 L7.59,20.772 L6.094,20.772 C5.12599516,20.772 4.35966949,20.673001 3.795,20.475 C3.23033051,20.276999 2.82333458,19.9506689 2.574,19.496 C2.32466542,19.0413311 2.2,18.4253372 2.2,17.648 L2.2,13.644 C2.2,13.306665 2.13766729,13.068334 2.013,12.929 C1.88833271,12.789666 1.6793348,12.72 1.386,12.72 L0.528,12.72 L0.528,9.684 L1.386,9.684 C1.6793348,9.684 1.88833271,9.61433403 2.013,9.475 C2.13766729,9.33566597 2.2,9.09733502 2.2,8.76 L2.2,4.778 C2.2,3.98599604 2.32466542,3.36266894 2.574,2.908 C2.82333458,2.45333106 3.23033051,2.12700099 3.795,1.929 C4.35966949,1.73099901 5.12599516,1.632 6.094,1.632 L7.59,1.632 L7.59,4.58 C6.856663,4.58 6.35433469,4.68633227 6.083,4.899 C5.81166531,5.11166773 5.676,5.4746641 5.676,5.988 L5.676,8.518 C5.676,9.33933744 5.51100165,9.9333315 5.181,10.3 Z" id="Path" fill="#FFFFFF"></path>
            <path d="M13.167,10.3 C12.8369983,10.6666685 12.2540042,10.9673322 11.418,11.202 C12.2540042,11.4366678 12.8369983,11.7373315 13.167,12.104 C13.4970016,12.4706685 13.662,13.0719958 13.662,13.908 L13.662,16.416 C13.662,16.9440026 13.7976653,17.3106656 14.069,17.516 C14.3403347,17.7213344 14.842663,17.824 15.576,17.824 L15.576,20.772 L14.08,20.772 C13.1119952,20.772 12.3456695,20.673001 11.781,20.475 C11.2163305,20.276999 10.8093346,19.9506689 10.56,19.496 C10.3106654,19.0413311 10.186,18.4253372 10.186,17.648 L10.186,13.644 C10.186,13.306665 10.1236673,13.068334 9.999,12.929 C9.87433271,12.789666 9.6653348,12.72 9.372,12.72 L8.514,12.72 L8.514,9.684 L9.372,9.684 C9.6653348,9.684 9.87433271,9.61433403 9.999,9.475 C10.1236673,9.33566597 10.186,9.09733502 10.186,8.76 L10.186,4.778 C10.186,3.98599604 10.3106654,3.36266894 10.56,2.908 C10.8093346,2.45333106 11.2163305,2.12700099 11.781,1.929 C12.3456695,1.73099901 13.1119952,1.632 14.08,1.632 L15.576,1.632 L15.576,4.58 C14.842663,4.58 14.3403347,4.68633227 14.069,4.899 C13.7976653,5.11166773 13.662,5.4746641 13.662,5.988 L13.662,8.518 C13.662,9.33933744 13.4970016,9.9333315 13.167,10.3 Z" id="Path" fill="#FFFFFF"></path>
        </g>
    </g>
</svg>